<svg width="15" height="15" viewBox="0 0 15 15" fill="none" xmlns="http://www.w3.org/2000/svg">
<path d="M0.833984 1.19722C0.833984 1.07861 0.881103 0.964859 0.964975 0.880988C1.04885 0.797118 1.1626 0.75 1.28122 0.75H2.62291C2.72267 0.750028 2.81956 0.783408 2.89816 0.844833C2.97677 0.906258 3.03258 0.992201 3.05672 1.08899L3.41898 2.53889H13.8037C13.8698 2.53893 13.9351 2.55364 13.9949 2.58196C14.0547 2.61028 14.1074 2.6515 14.1494 2.70266C14.1913 2.75382 14.2213 2.81364 14.2373 2.87781C14.2534 2.94198 14.2549 3.00891 14.242 3.07377L13.3475 7.54599C13.3279 7.64351 13.2764 7.73173 13.2011 7.79669C13.1258 7.86165 13.0309 7.89964 12.9316 7.90466L4.52632 8.32684L4.78304 9.69444H12.462C12.5806 9.69444 12.6944 9.74156 12.7782 9.82543C12.8621 9.9093 12.9092 10.0231 12.9092 10.1417C12.9092 10.2603 12.8621 10.374 12.7782 10.4579C12.6944 10.5418 12.5806 10.5889 12.462 10.5889H4.41183C4.30757 10.5888 4.20661 10.5523 4.12642 10.4856C4.04623 10.419 3.99184 10.3264 3.97265 10.224L2.63185 3.08182L2.27407 1.64444H1.28122C1.1626 1.64444 1.04885 1.59733 0.964975 1.51346C0.881103 1.42959 0.833984 1.31583 0.833984 1.19722ZM3.60861 3.43333L4.35996 7.43955L12.5389 7.029L13.2581 3.43333H3.60861ZM5.3063 10.5889C4.83184 10.5889 4.37682 10.7774 4.04134 11.1128C3.70585 11.4483 3.51737 11.9033 3.51737 12.3778C3.51737 12.8522 3.70585 13.3072 4.04134 13.6427C4.37682 13.9782 4.83184 14.1667 5.3063 14.1667C5.78075 14.1667 6.23577 13.9782 6.57126 13.6427C6.90675 13.3072 7.09522 12.8522 7.09522 12.3778C7.09522 11.9033 6.90675 11.4483 6.57126 11.1128C6.23577 10.7774 5.78075 10.5889 5.3063 10.5889ZM11.5675 10.5889C11.0931 10.5889 10.6381 10.7774 10.3026 11.1128C9.96708 11.4483 9.77861 11.9033 9.77861 12.3778C9.77861 12.8522 9.96708 13.3072 10.3026 13.6427C10.6381 13.9782 11.0931 14.1667 11.5675 14.1667C12.042 14.1667 12.497 13.9782 12.8325 13.6427C13.168 13.3072 13.3565 12.8522 13.3565 12.3778C13.3565 11.9033 13.168 11.4483 12.8325 11.1128C12.497 10.7774 12.042 10.5889 11.5675 10.5889ZM5.3063 11.4833C5.54352 11.4833 5.77103 11.5776 5.93878 11.7453C6.10652 11.9131 6.20076 12.1406 6.20076 12.3778C6.20076 12.615 6.10652 12.8425 5.93878 13.0102C5.77103 13.178 5.54352 13.2722 5.3063 13.2722C5.06907 13.2722 4.84156 13.178 4.67382 13.0102C4.50607 12.8425 4.41183 12.615 4.41183 12.3778C4.41183 12.1406 4.50607 11.9131 4.67382 11.7453C4.84156 11.5776 5.06907 11.4833 5.3063 11.4833ZM11.5675 11.4833C11.8048 11.4833 12.0323 11.5776 12.2 11.7453C12.3678 11.9131 12.462 12.1406 12.462 12.3778C12.462 12.615 12.3678 12.8425 12.2 13.0102C12.0323 13.178 11.8048 13.2722 11.5675 13.2722C11.3303 13.2722 11.1028 13.178 10.9351 13.0102C10.7673 12.8425 10.6731 12.615 10.6731 12.3778C10.6731 12.1406 10.7673 11.9131 10.9351 11.7453C11.1028 11.5776 11.3303 11.4833 11.5675 11.4833Z" fill="black"/>
</svg>
